<svg xmlns="http://www.w3.org/2000/svg" x="0px" y="0px"
     width="100" height="100"
     viewBox="0 0 172 172"
     style=" fill:#000000;">
    <g fill="none" fill-rule="nonzero" stroke="none" stroke-width="1" stroke-linecap="butt" stroke-linejoin="miter"
       stroke-miterlimit="10" stroke-dasharray="" stroke-dashoffset="0" font-family="none" font-weight="none"
       font-size="none" text-anchor="none" style="mix-blend-mode: normal">
        <path d="M0,172v-172h172v172z" fill="none"></path>
        <g>
            <path d="M132.44,68.8c0,27.52 -46.44,80.84 -46.44,80.84c0,0 -46.44,-53.32 -46.44,-80.84c0,-25.64864 20.79136,-46.44 46.44,-46.44c25.64864,0 46.44,20.79136 46.44,46.44z"
                  fill="#3498db"></path>
            <path d="M86,151.36c-0.49708,0 -0.97008,-0.215 -1.29688,-0.58996c-1.91436,-2.19644 -46.86312,-54.12668 -46.86312,-81.97004c0,-26.55508 21.60492,-48.16 48.16,-48.16c26.55508,0 48.16,21.60492 48.16,48.16c0,27.84336 -44.94876,79.7736 -46.86312,81.97004c-0.3268,0.37496 -0.7998,0.58996 -1.29688,0.58996zM86,24.08c-24.65792,0 -44.72,20.06036 -44.72,44.72c0,24.01464 37.238,69.32976 44.72,78.18948c7.482,-8.85972 44.72,-54.17484 44.72,-78.18948c0,-24.65964 -20.06208,-44.72 -44.72,-44.72z"
                  fill="#ead6c7"></path>
            <path d="M86,42.14c-14.72391,0 -26.66,11.93609 -26.66,26.66c0,14.72391 11.93609,26.66 26.66,26.66c14.72391,0 26.66,-11.93609 26.66,-26.66c0,-14.72391 -11.93609,-26.66 -26.66,-26.66z"
                  fill="#fefdef"></path>
            <path d="M86,151.36c-0.49708,0 -0.97008,-0.215 -1.29688,-0.58996c-1.91436,-2.19644 -46.86312,-54.12668 -46.86312,-81.97004c0,-26.55508 21.60492,-48.16 48.16,-48.16c26.55508,0 48.16,21.60492 48.16,48.16c0,27.84336 -44.94876,79.7736 -46.86312,81.97004c-0.3268,0.37496 -0.7998,0.58996 -1.29688,0.58996zM86,24.08c-24.65792,0 -44.72,20.06036 -44.72,44.72c0,24.01464 37.238,69.32976 44.72,78.18948c7.482,-8.85972 44.72,-54.17484 44.72,-78.18948c0,-24.65964 -20.06208,-44.72 -44.72,-44.72z"
                  fill="#1f212b"></path>
            <path d="M86,96.32c-15.17384,0 -27.52,-12.34616 -27.52,-27.52c0,-15.17384 12.34616,-27.52 27.52,-27.52c15.17384,0 27.52,12.34616 27.52,27.52c0,15.17384 -12.34616,27.52 -27.52,27.52zM86,43c-14.22612,0 -25.8,11.57388 -25.8,25.8c0,14.22612 11.57388,25.8 25.8,25.8c14.22612,0 25.8,-11.57388 25.8,-25.8c0,-14.22612 -11.57388,-25.8 -25.8,-25.8z"
                  fill="#1f212b"></path>
            <path d="M86,96.32c-15.17384,0 -27.52,-12.34616 -27.52,-27.52c0,-15.17384 12.34616,-27.52 27.52,-27.52c15.17384,0 27.52,12.34616 27.52,27.52c0,15.17384 -12.34616,27.52 -27.52,27.52zM86,43c-14.22612,0 -25.8,11.57388 -25.8,25.8c0,14.22612 11.57388,25.8 25.8,25.8c14.22612,0 25.8,-11.57388 25.8,-25.8c0,-14.22612 -11.57388,-25.8 -25.8,-25.8z"
                  fill="#1f212b"></path>
            <path d="M86,104.92c-19.9176,0 -36.12,-16.20412 -36.12,-36.12c0,-19.91588 16.2024,-36.12 36.12,-36.12c5.89616,0 11.52916,1.3932 16.74076,4.14004c0.41968,0.22188 0.58136,0.74304 0.35948,1.16272c-0.22188,0.4214 -0.74132,0.58136 -1.16272,0.35948c-4.96048,-2.61612 -10.32344,-3.94224 -15.93752,-3.94224c-18.96816,0 -34.4,15.43184 -34.4,34.4c0,18.96816 15.43184,34.4 34.4,34.4c18.81164,0 33.9012,-14.7404 34.357,-33.56064c0.01204,-0.47644 0.35432,-0.89612 0.88064,-0.83936c0.47472,0.01204 0.84968,0.40592 0.83936,0.88064c-0.47816,19.76108 -16.32452,35.23936 -36.077,35.23936zM113.89324,48.16c-0.258,0 -0.51256,-0.11524 -0.68112,-0.33368c-1.96252,-2.5456 -4.2656,-4.80568 -6.84388,-6.71316c-0.38184,-0.2838 -0.46268,-0.82216 -0.17888,-1.204c0.2838,-0.38012 0.82216,-0.45924 1.20228,-0.17888c2.70728,2.0038 5.12388,4.37396 7.18272,7.04684c0.28896,0.37668 0.22016,0.91676 -0.15652,1.20744c-0.15652,0.11696 -0.34228,0.17544 -0.5246,0.17544zM119.42132,58.48c-0.35948,0 -0.69488,-0.22704 -0.81528,-0.58652c-0.57276,-1.70968 -1.29516,-3.40388 -2.15,-5.03444c-0.22016,-0.4214 -0.05848,-0.94084 0.36292,-1.16272c0.41968,-0.215 0.93912,-0.05504 1.161,0.36292c0.89612,1.7114 1.65636,3.48988 2.25836,5.28556c0.15136,0.45236 -0.09288,0.93912 -0.5418,1.09048c-0.09288,0.03096 -0.18576,0.04472 -0.2752,0.04472z"
                  fill="#1f212b"></path>
        </g>
    </g>
</svg>