<svg xmlns="http://www.w3.org/2000/svg" x="0px" y="0px"
     width="40" height="40"
     viewBox="0 0 172 172"
     style=" fill:#000000;">
    <g fill="none" fill-rule="nonzero" stroke="none" stroke-width="1"
       stroke-linecap="butt" stroke-linejoin="miter" stroke-miterlimit="10"
       stroke-dasharray="" stroke-dashoffset="0" font-family="none" font-weight="none"
       font-size="none" text-anchor="none" style="mix-blend-mode: normal">
        <path d="M0,172v-172h172v172z" fill="none"></path>
        <g>
            <path d="M131.5671,165.55c-2.7047,0 -5.332,-0.5418 -7.8045,-1.6168c-14.8565,-6.4414 -43.5848,-21.0528 -69.1139,-46.5819c-25.5291,-25.5291 -40.1405,-54.2574 -46.5819,-69.1096c-3.2594,-7.5164 -1.5652,-16.1723 4.3129,-22.0504l16.0261,-16.0261c2.3951,-2.3951 5.5814,-3.7152 8.9741,-3.7152c3.3927,0 6.579,1.3201 8.9741,3.7195l20.9969,20.9969c2.3306,2.3306 3.5819,5.5771 3.5174,9.1418c-0.0602,3.4228 -1.3416,6.6349 -3.5174,8.8107l-21.973,21.973l0.4816,1.2943c0.2623,0.7009 6.5446,17.3204 21.4914,32.2629c14.9425,14.9468 31.562,21.2334 32.2629,21.4914l1.2943,0.4816l21.973,-21.973c2.3994,-2.3994 5.5857,-3.7195 8.9784,-3.7195c3.3927,0 6.579,1.3201 8.9741,3.7195l20.9969,20.9969c4.9493,4.9493 4.9493,13.0032 0,17.9525l-16.0261,16.0261c-3.7625,3.7668 -8.9569,5.9254 -14.2373,5.9254z"
                  fill="#3498db"></path>
            <path d="M37.3799,8.6c2.8165,0 5.4653,1.0965 7.4562,3.0874l20.9969,20.9969c4.2011,4.2011 3.4486,11.4638 0,14.9124l-20.9969,20.9969l-1.9522,1.9522l0.9632,2.5886c0.2666,0.7181 6.7123,17.7633 21.9859,33.0369c15.2736,15.2736 32.3188,21.7193 33.0369,21.9859l2.5886,0.9632l1.9522,-1.9522l20.9969,-20.9969c1.9909,-1.9909 4.6397,-3.0874 7.4562,-3.0874c2.8165,0 5.4653,1.0965 7.4562,3.0874l20.9969,20.9969c4.1108,4.1108 4.1108,10.8016 0,14.9124l-16.0218,16.0218c-3.3755,3.3669 -8.0152,5.2976 -12.7323,5.2976c-2.408,0 -4.7429,-0.4859 -6.9488,-1.4405c-14.7146,-6.3769 -43.172,-20.855 -68.4474,-46.1261c-25.2754,-25.2754 -39.7492,-53.7328 -46.1261,-68.4474c-2.9068,-6.7037 -1.3889,-14.4222 3.8571,-19.6725l16.0218,-16.0218c1.9952,-1.9952 4.644,-3.0917 7.4605,-3.0917M37.3799,4.3c-3.7969,0 -7.5981,1.4491 -10.4963,4.3473l-16.0261,16.0261c-6.4156,6.4156 -8.3721,16.0992 -4.7644,24.424c7.1294,16.4518 21.7881,44.5308 47.0334,69.7761c25.2453,25.2453 53.3286,39.8997 69.7761,47.0334c2.795,1.2083 5.7362,1.7931 8.6602,1.7931c5.7921,0 11.5025,-2.2962 15.7638,-6.5575l16.0218,-16.0218c5.7964,-5.7964 5.7964,-15.1962 0,-20.9969l-20.9969,-20.9969c-2.8982,-2.8982 -6.6994,-4.3473 -10.4963,-4.3473c-3.7969,0 -7.5981,1.4491 -10.4963,4.3473l-20.9969,20.9969c0,0 -16.7098,-6.2092 -31.4932,-20.9969c-14.7834,-14.7834 -20.9969,-31.4932 -20.9969,-31.4932l20.9969,-20.9969c5.2589,-5.2589 5.7964,-15.1962 0,-20.9969l-20.9969,-20.9969c-2.8939,-2.8939 -6.6908,-4.343 -10.492,-4.343z"
                  fill="#4788c7"></path>
        </g>
    </g>
</svg>